<?xml version="1.0" encoding="utf-8"?>
<!-- Generator: Adobe Illustrator 26.0.1, SVG Export Plug-In . SVG Version: 6.00 Build 0)  -->
<svg version="1.1" id="Camada_1" xmlns="http://www.w3.org/2000/svg" xmlns:xlink="http://www.w3.org/1999/xlink" x="0px" y="0px"
	 viewBox="0 0 50 800" style="enable-background:new 0 0 50 800;" xml:space="preserve">
<style type="text/css">
	.st0{fill:#5E5E5E;}
	.st1{fill:#ACACAD;}
	.st2{fill:#EAEAEA;}
	.st3{clip-path:url(#SVGID_00000095324425254344824270000017054110566790737337_);}
	.st4{fill:#9399AA;}
	.st5{fill:#647089;}
	.st6{fill:#747C93;}
	.st7{fill:#6E798E;}
	.st8{fill:#444444;}
	.st9{fill:#6B6B6B;}
	.st10{opacity:0.27;fill:url(#SVGID_00000107585530461948708980000013050883635638857101_);enable-background:new    ;}
	.st11{fill:#FFFFFF;}
	.st12{clip-path:url(#SVGID_00000019678410851758903780000003120392281980600495_);}
	.st13{opacity:0.27;fill:url(#SVGID_00000108993752149061631020000013881386553398974362_);enable-background:new    ;}
	.st14{fill:#143B5B;}
	.st15{clip-path:url(#SVGID_00000156551924421746686910000010593743802825440440_);}
	.st16{opacity:0.27;fill:url(#SVGID_00000011726893329899408600000017813352618085813435_);enable-background:new    ;}
	.st17{clip-path:url(#SVGID_00000155104459756328281250000016110496837206367656_);}
	.st18{opacity:0.27;fill:url(#SVGID_00000161616984809653313170000001406065286889751202_);enable-background:new    ;}
	.st19{clip-path:url(#SVGID_00000036940338661982786440000007881630722050996109_);}
	.st20{opacity:0.27;fill:url(#SVGID_00000083053548587886882680000013569547683177815962_);enable-background:new    ;}
	.st21{clip-path:url(#SVGID_00000021801830545622875970000004891310525442652815_);}
	.st22{opacity:0.27;fill:url(#SVGID_00000039835555858387824510000012814563712952552851_);enable-background:new    ;}
</style>
<rect x="356.2" y="-2028.9" class="st0" width="1209.3" height="452.2"/>
<rect x="356.2" y="-1576.7" class="st1" width="1209.3" height="354"/>
<rect x="442.7" y="-2028.8" class="st2" width="281.3" height="344.6"/>
<g>
	<defs>
		<rect id="SVGID_1_" x="442.7" y="-2028.8" width="281.3" height="344.6"/>
	</defs>
	<clipPath id="SVGID_00000169547213895720446550000013015243525687209377_">
		<use xlink:href="#SVGID_1_"  style="overflow:visible;"/>
	</clipPath>
	<g style="clip-path:url(#SVGID_00000169547213895720446550000013015243525687209377_);">
		<polygon class="st4" points="714.3,-1868.4 714.3,-1878.2 678,-1878.2 678,-1868.4 669.3,-1868.4 669.3,-1684.2 733.5,-1684.2 
			733.5,-1868.4 		"/>
		<rect x="631.2" y="-1761.2" class="st5" width="49.4" height="77"/>
		<rect x="714.3" y="-1785.9" class="st5" width="49.4" height="101.7"/>
		<rect x="554.7" y="-1901" class="st4" width="64.1" height="216.8"/>
		<rect x="469.4" y="-1813.2" class="st4" width="39.5" height="129"/>
		<rect x="476.6" y="-1873.6" class="st4" width="25.1" height="81.9"/>
		<rect x="485.3" y="-1940.6" class="st4" width="7.9" height="81.9"/>
		<rect x="442.7" y="-1773" class="st6" width="39.5" height="88.8"/>
		<rect x="560.7" y="-1766" class="st7" width="36.7" height="81.8"/>
		<rect x="602.3" y="-1847.7" class="st5" width="49.4" height="163.5"/>
		<rect x="501.6" y="-1785.9" class="st5" width="71.2" height="101.7"/>
	</g>
</g>
<polygon class="st8" points="437.5,-2028.8 447.8,-2028.8 447.8,-1686.6 437.5,-1684.2 "/>
<path class="st9" d="M437.5-1684.2c1.8-0.4,10.3-4.5,10.3-4.5H724v4.5H437.5z"/>
<linearGradient id="SVGID_00000084491851903792165360000011850479709398475136_" gradientUnits="userSpaceOnUse" x1="585.8875" y1="-1565.0798" x2="585.8875" y2="-1224.9541" gradientTransform="matrix(1 0 0 -1 0 -3253.7874)">
	<stop  offset="0" style="stop-color:#FFFFFF"/>
	<stop  offset="1" style="stop-color:#00A8D4"/>
</linearGradient>
<rect x="447.8" y="-2028.8" style="opacity:0.27;fill:url(#SVGID_00000084491851903792165360000011850479709398475136_);enable-background:new    ;" width="276.1" height="340.1"/>
<polygon class="st11" points="447.8,-1915.6 515.4,-2028.8 568.5,-2028.8 447.8,-1831.6 "/>
<polygon class="st11" points="447.8,-1747.1 636.9,-2028.9 673.7,-2028.8 447.8,-1691.7 "/>
<rect x="1231.7" y="-2028.8" class="st2" width="281.3" height="344.6"/>
<g>
	<defs>
		<rect id="SVGID_00000055700362111317320860000012970844551112244926_" x="1231.7" y="-2028.8" width="281.3" height="344.6"/>
	</defs>
	<clipPath id="SVGID_00000090278816388156778730000001090979849947247531_">
		<use xlink:href="#SVGID_00000055700362111317320860000012970844551112244926_"  style="overflow:visible;"/>
	</clipPath>
	<g style="clip-path:url(#SVGID_00000090278816388156778730000001090979849947247531_);">
		<rect x="1325.6" y="-1901" class="st4" width="64.1" height="216.8"/>
		<rect x="1434.4" y="-1832.6" class="st6" width="39.5" height="148.4"/>
		<rect x="1300.9" y="-1847.7" class="st5" width="49.4" height="163.5"/>
		<rect x="1469.4" y="-1929.2" class="st5" width="49.4" height="245"/>
		<polygon class="st4" points="1216.8,-1868.4 1216.8,-1878.2 1180.5,-1878.2 1180.5,-1868.4 1171.8,-1868.4 1171.8,-1684.2 
			1236,-1684.2 1236,-1868.4 		"/>
		<rect x="1245.4" y="-1944.3" class="st7" width="63.8" height="260.1"/>
		<rect x="1216.8" y="-1785.9" class="st5" width="49.4" height="101.7"/>
		<rect x="1376.4" y="-1785.9" class="st5" width="71.2" height="101.7"/>
	</g>
</g>
<polygon class="st8" points="1226.5,-2028.8 1236.9,-2028.8 1236.9,-1686.6 1226.5,-1684.2 "/>
<path class="st9" d="M1226.5-1684.2c1.8-0.4,10.3-4.5,10.3-4.5H1513v4.5H1226.5z"/>
<linearGradient id="SVGID_00000143575517256737835940000018004564659341834146_" gradientUnits="userSpaceOnUse" x1="1374.9355" y1="-1565.0798" x2="1374.9355" y2="-1224.9541" gradientTransform="matrix(1 0 0 -1 0 -3253.7874)">
	<stop  offset="0" style="stop-color:#FFFFFF"/>
	<stop  offset="1" style="stop-color:#00A8D4"/>
</linearGradient>
<rect x="1236.9" y="-2028.8" style="opacity:0.27;fill:url(#SVGID_00000143575517256737835940000018004564659341834146_);enable-background:new    ;" width="276.1" height="340.1"/>
<polygon class="st11" points="1236.9,-1812.5 1387.2,-2028.8 1433.7,-2028.8 1236.9,-1751.8 "/>
<polygon class="st11" points="1376.4,-1688.7 1513,-1902.2 1513,-1832.8 1421.3,-1688.7 "/>
<rect x="838.5" y="-2028.8" class="st14" width="281.3" height="344.6"/>
<rect x="838.5" y="-2028.8" class="st2" width="281.3" height="344.6"/>
<g>
	<defs>
		<rect id="SVGID_00000001621951432019666480000017074362371642643841_" x="838.5" y="-2028.8" width="281.3" height="344.6"/>
	</defs>
	<clipPath id="SVGID_00000038400434047866660570000012035500344256987820_">
		<use xlink:href="#SVGID_00000001621951432019666480000017074362371642643841_"  style="overflow:visible;"/>
	</clipPath>
	<g style="clip-path:url(#SVGID_00000038400434047866660570000012035500344256987820_);">
		<rect x="823.1" y="-1901" class="st4" width="64.1" height="216.8"/>
		<rect x="931.9" y="-1832.6" class="st6" width="39.5" height="148.4"/>
		<rect x="798.4" y="-1847.7" class="st5" width="49.4" height="163.5"/>
		<rect x="873.9" y="-1785.9" class="st5" width="71.2" height="101.7"/>
		<rect x="1057.2" y="-1901" class="st4" width="64.1" height="216.8"/>
		<rect x="971.9" y="-1813.2" class="st4" width="39.5" height="129"/>
		<rect x="979.1" y="-1873.6" class="st4" width="25.1" height="81.9"/>
		<rect x="987.8" y="-1940.6" class="st4" width="7.9" height="81.9"/>
		<rect x="945.2" y="-1773" class="st6" width="39.5" height="88.8"/>
		<rect x="1063.2" y="-1766" class="st7" width="36.7" height="81.8"/>
		<rect x="1104.8" y="-1847.7" class="st5" width="49.4" height="163.5"/>
		<rect x="1004.1" y="-1785.9" class="st5" width="71.2" height="101.7"/>
	</g>
</g>
<polygon class="st8" points="833.3,-2028.8 843.6,-2028.8 843.6,-1686.6 833.3,-1684.2 "/>
<path class="st9" d="M833.3-1684.2c1.8-0.4,10.3-4.5,10.3-4.5h276.1v4.5H833.3z"/>
<linearGradient id="SVGID_00000003067052075589091720000012440495485048347011_" gradientUnits="userSpaceOnUse" x1="981.7014" y1="-1565.0798" x2="981.7014" y2="-1224.9541" gradientTransform="matrix(1 0 0 -1 0 -3253.7874)">
	<stop  offset="0" style="stop-color:#FFFFFF"/>
	<stop  offset="1" style="stop-color:#00A8D4"/>
</linearGradient>
<rect x="843.6" y="-2028.8" style="opacity:0.27;fill:url(#SVGID_00000003067052075589091720000012440495485048347011_);enable-background:new    ;" width="276.1" height="340.1"/>
<polygon class="st11" points="843.6,-1978.5 883,-2028.8 913.3,-2028.8 843.6,-1934 "/>
<polygon class="st11" points="1011.5,-1688.7 1119.8,-1858.8 1119.8,-1806.8 1051,-1688.7 "/>
<g>
	<rect y="-3.1" class="st0" width="1209.3" height="452.2"/>
	<rect y="449.1" class="st1" width="1209.3" height="354"/>
	<rect x="86.5" y="-3" class="st2" width="281.3" height="344.6"/>
	<g>
		<defs>
			<rect id="SVGID_00000018206039810666204020000006131474290851089824_" x="86.5" y="-3" width="281.3" height="344.6"/>
		</defs>
		<clipPath id="SVGID_00000016757138756284810950000000346802607126766757_">
			<use xlink:href="#SVGID_00000018206039810666204020000006131474290851089824_"  style="overflow:visible;"/>
		</clipPath>
		<g style="clip-path:url(#SVGID_00000016757138756284810950000000346802607126766757_);">
			<polygon class="st4" points="358.1,157.4 358.1,147.5 321.8,147.5 321.8,157.4 313.1,157.4 313.1,341.6 377.3,341.6 377.3,157.4 
							"/>
			<rect x="275" y="264.6" class="st5" width="49.4" height="77"/>
			<rect x="358.1" y="239.9" class="st5" width="49.4" height="101.7"/>
			<rect x="198.5" y="124.8" class="st4" width="64.1" height="216.8"/>
			<rect x="113.2" y="212.6" class="st4" width="39.5" height="129"/>
			<rect x="120.4" y="152.2" class="st4" width="25.1" height="81.9"/>
			<rect x="129.1" y="85.2" class="st4" width="7.9" height="81.9"/>
			<rect x="86.5" y="252.8" class="st6" width="39.5" height="88.8"/>
			<rect x="204.5" y="259.8" class="st7" width="36.7" height="81.8"/>
			<rect x="246.1" y="178.1" class="st5" width="49.4" height="163.5"/>
			<rect x="145.4" y="239.9" class="st5" width="71.2" height="101.7"/>
		</g>
	</g>
	<polygon class="st8" points="81.3,-3 91.6,-3 91.6,339.2 81.3,341.6 	"/>
	<path class="st9" d="M81.3,341.6c1.8-0.4,10.3-4.5,10.3-4.5h276.1v4.5H81.3z"/>
	
		<linearGradient id="SVGID_00000175285936474209290620000001745904769947636899_" gradientUnits="userSpaceOnUse" x1="229.6864" y1="-3590.8735" x2="229.6864" y2="-3250.7478" gradientTransform="matrix(1 0 0 -1 0 -3253.7874)">
		<stop  offset="0" style="stop-color:#FFFFFF"/>
		<stop  offset="1" style="stop-color:#00A8D4"/>
	</linearGradient>
	
		<rect x="91.6" y="-3" style="opacity:0.27;fill:url(#SVGID_00000175285936474209290620000001745904769947636899_);enable-background:new    ;" width="276.1" height="340.1"/>
	<polygon class="st11" points="91.6,110.2 159.2,-3 212.3,-3 91.6,194.2 	"/>
	<polygon class="st11" points="91.6,278.7 280.7,-3.1 317.5,-3 91.6,334.1 	"/>
	<rect x="875.5" y="-3" class="st2" width="281.3" height="344.6"/>
	<g>
		<defs>
			<rect id="SVGID_00000140720386222081301870000006632971566017037467_" x="875.5" y="-3" width="281.3" height="344.6"/>
		</defs>
		<clipPath id="SVGID_00000037666148592484178130000013677970532438825116_">
			<use xlink:href="#SVGID_00000140720386222081301870000006632971566017037467_"  style="overflow:visible;"/>
		</clipPath>
		<g style="clip-path:url(#SVGID_00000037666148592484178130000013677970532438825116_);">
			<rect x="969.4" y="124.8" class="st4" width="64.1" height="216.8"/>
			<rect x="1078.2" y="193.2" class="st6" width="39.5" height="148.4"/>
			<rect x="944.7" y="178.1" class="st5" width="49.4" height="163.5"/>
			<rect x="1113.2" y="96.6" class="st5" width="49.4" height="245"/>
			<polygon class="st4" points="860.6,157.4 860.6,147.5 824.3,147.5 824.3,157.4 815.6,157.4 815.6,341.6 879.8,341.6 879.8,157.4 
							"/>
			<rect x="889.2" y="81.5" class="st7" width="63.8" height="260.1"/>
			<rect x="860.6" y="239.9" class="st5" width="49.4" height="101.7"/>
			<rect x="1020.2" y="239.9" class="st5" width="71.2" height="101.7"/>
		</g>
	</g>
	<polygon class="st8" points="870.3,-3 880.7,-3 880.7,339.2 870.3,341.6 	"/>
	<path class="st9" d="M870.3,341.6c1.8-0.4,10.3-4.5,10.3-4.5h276.1v4.5H870.3z"/>
	
		<linearGradient id="SVGID_00000081606413987162470020000006047067558414471339_" gradientUnits="userSpaceOnUse" x1="1018.7345" y1="-3590.8735" x2="1018.7345" y2="-3250.7478" gradientTransform="matrix(1 0 0 -1 0 -3253.7874)">
		<stop  offset="0" style="stop-color:#FFFFFF"/>
		<stop  offset="1" style="stop-color:#00A8D4"/>
	</linearGradient>
	
		<rect x="880.7" y="-3" style="opacity:0.27;fill:url(#SVGID_00000081606413987162470020000006047067558414471339_);enable-background:new    ;" width="276.1" height="340.1"/>
	<polygon class="st11" points="880.7,213.2 1031,-3 1077.5,-3 880.7,274 	"/>
	<polygon class="st11" points="1020.2,337.1 1156.8,123.6 1156.8,193 1065.1,337.1 	"/>
	<rect x="482.3" y="-3" class="st14" width="281.3" height="344.6"/>
	<rect x="482.3" y="-3" class="st2" width="281.3" height="344.6"/>
	<g>
		<defs>
			<rect id="SVGID_00000000945300445542778660000006441790980225542557_" x="482.3" y="-3" width="281.3" height="344.6"/>
		</defs>
		<clipPath id="SVGID_00000170246587872006046210000007828644333519816608_">
			<use xlink:href="#SVGID_00000000945300445542778660000006441790980225542557_"  style="overflow:visible;"/>
		</clipPath>
		<g style="clip-path:url(#SVGID_00000170246587872006046210000007828644333519816608_);">
			<rect x="466.9" y="124.8" class="st4" width="64.1" height="216.8"/>
			<rect x="575.7" y="193.2" class="st6" width="39.5" height="148.4"/>
			<rect x="442.2" y="178.1" class="st5" width="49.4" height="163.5"/>
			<rect x="517.7" y="239.9" class="st5" width="71.2" height="101.7"/>
			<rect x="701" y="124.8" class="st4" width="64.1" height="216.8"/>
			<rect x="615.7" y="212.6" class="st4" width="39.5" height="129"/>
			<rect x="622.9" y="152.2" class="st4" width="25.1" height="81.9"/>
			<rect x="631.6" y="85.2" class="st4" width="7.9" height="81.9"/>
			<rect x="589" y="252.8" class="st6" width="39.5" height="88.8"/>
			<rect x="707" y="259.8" class="st7" width="36.7" height="81.8"/>
			<rect x="748.6" y="178.1" class="st5" width="49.4" height="163.5"/>
			<rect x="647.9" y="239.9" class="st5" width="71.2" height="101.7"/>
		</g>
	</g>
	<polygon class="st8" points="477.1,-3 487.4,-3 487.4,339.2 477.1,341.6 	"/>
	<path class="st9" d="M477.1,341.6c1.8-0.4,10.3-4.5,10.3-4.5h276.1v4.5H477.1z"/>
	
		<linearGradient id="SVGID_00000123402823026765220210000016796130427511132071_" gradientUnits="userSpaceOnUse" x1="625.5004" y1="-3590.8735" x2="625.5004" y2="-3250.7478" gradientTransform="matrix(1 0 0 -1 0 -3253.7874)">
		<stop  offset="0" style="stop-color:#FFFFFF"/>
		<stop  offset="1" style="stop-color:#00A8D4"/>
	</linearGradient>
	
		<rect x="487.4" y="-3" style="opacity:0.27;fill:url(#SVGID_00000123402823026765220210000016796130427511132071_);enable-background:new    ;" width="276.1" height="340.1"/>
	<polygon class="st11" points="487.4,47.2 526.8,-3 557.1,-3 487.4,91.8 	"/>
	<polygon class="st11" points="655.3,337.1 763.6,167 763.6,219 694.8,337.1 	"/>
</g>
</svg>
