<svg xmlns="http://www.w3.org/2000/svg" viewBox="0 0 423.86 285.96"><defs><style>.cls-1{fill:#fff;}.cls-2{fill:#ee6129;}.cls-3{fill:#84dfff;}.cls-4{fill:#f27e55;}.cls-5{fill:#c5f0fc;}</style></defs><g id="Camada_2" data-name="Camada 2"><g id="Camada_11" data-name="Camada 11"><path d="M92.09,280.42l-.38-7.91c-.27-5.67-.42-11.23-.43-16.55-10.52,15-23.2,22.65-37.71,22.65-15,0-27.73-6.66-37.78-19.79C6.17,246.27,1.5,228.36,1.5,204.06c0-23.7,5.05-43.48,15-58.8,10.78-16.59,24.1-25,39.61-25,14.1,0,26.08,5.75,35.66,17.1-.34-12.32-.5-26.66-.5-42.7,0-19.56.62-46,1.85-78.5L93.36,10l5.83-2.16A101.18,101.18,0,0,1,134.24,1.5c13.28,0,25.23,4.92,35.52,14.61A48.71,48.71,0,0,1,183.65,39,83.79,83.79,0,0,1,204,36.49c10.73,0,19.91,3.52,27.29,10.46,7.55,7.11,11.37,16.93,11.37,29.19,0,12.11-6.63,23.57-19.72,34.08,4.36,5.65,8.83,11.67,13.34,17.95L259,35.84,300,39.37l27.19,120.22.87,1,34.61,3.11.22,8.27c.75,29.18,1.13,50.82,1.13,64.31,0,13.65-.44,26-1.3,36.72l-.76,9.38-38.14-3.62.8-7.75-22.42-2,.68,12.29-35.79-3.25a79.91,79.91,0,0,1-29.35,5.08l-.73,0-27.12-2.46,0,2.15-34.2-3-3.64-.25L172,281l-30.89-3-2.19-5c-4.26-9.67-8.29-18.59-12-26.6q0,12.47,0,27.54v10.37Z"/><path class="cls-1" d="M134.24,3c12.88,0,24.49,4.78,34.49,14.21a47.12,47.12,0,0,1,13.84,23.6A82.22,82.22,0,0,1,204,38c10.33,0,19.17,3.38,26.27,10.06s10.89,16.26,10.89,28.09c0,12-6.83,23.36-20.31,33.82,5.25,6.78,10.66,14.08,16.11,21.73l23.27-94.25,38.55,3.34.15.66,26.88,118.84,1.5,1.78,33.9,3.05.18,6.93c.75,29.18,1.13,50.8,1.13,64.27,0,13.62-.43,25.93-1.3,36.59l-.64,7.87-35.11-3.33.81-7.81c.23-2.25.46-5,.68-8.34-.23.75-.46,1.49-.68,2.22l-1.86,6-23.81-2.1c.06,1.11.12,2.21.18,3.29l.5,9-34.42-3.13c-8.45,3.39-18.25,5.11-29.13,5.11l-.66,0-28.72-2.61,0,2.16-32.54-2.84-5.18-.36-.08,1.31-28.47-2.79-1.83-4.17c-5.37-12.2-10.38-23.19-14.91-32.73q0,15,0,34.28v8.7l-31.85-3.54-.32-6.63c-.29-6-.43-11.83-.43-17.41,0-1.32,0-2.69,0-4.12q-.53.87-1.05,1.68c-10.55,16.27-23.4,24.51-38.17,24.51-14.52,0-26.84-6.46-36.59-19.2C7.57,245.63,3,228,3,204.06c0-23.4,5-42.91,14.76-58,10.49-16.14,23.39-24.32,38.36-24.32,14.74,0,27.1,6.51,36.73,19.36.19.25.37.5.56.77-.42-13.3-.63-29.17-.63-47.23,0-19.53.62-45.92,1.85-78.45l.19-5.2L99.71,9.2A99.64,99.64,0,0,1,134.24,3m0-3A102.45,102.45,0,0,0,98.67,6.39l-4.89,1.8-1.88.7-.08,2-.19,5.21c-1.23,32.55-1.85,59-1.85,78.56,0,14.33.13,27.3.4,38.69-9.39-9.69-20.82-14.59-34.06-14.59-16,0-29.8,8.64-40.87,25.68C5.13,160,0,180.07,0,204.06c0,24.64,4.77,42.85,14.59,55.67,10.36,13.52,23.47,20.37,39,20.37,13.81,0,26-6.6,36.25-19.66.06,4,.2,8,.39,12.14l.32,6.63.13,2.56,2.54.28,31.85,3.54,3.33.37v-12q0-11.06,0-20.71c2.9,6.33,6,13.14,9.14,20.37l1.84,4.17.71,1.6,1.74.17,28.47,2.8,3.1.3.09-1.4,2.13.15,32.51,2.84,3.32.29,0-2.15,25.39,2.31h.14l.66,0h.13a81.56,81.56,0,0,0,29.57-5.06L301,282.7l3.46.31-.19-3.46-.49-8.84,19.18,1.69-.48,4.73-.31,3,3,.29,35.11,3.33,3,.29.24-3,.64-7.86c.87-10.75,1.31-23.15,1.31-36.84,0-13.5-.38-35.15-1.13-64.35l-.18-6.93-.07-2.67-2.66-.24-32.68-2.94-.23-.27L301.82,40.78l-.15-.67L301.18,38,299,37.79l-38.55-3.34-2.56-.22-.62,2.49-21.71,87.94c-3.56-4.91-7.11-9.67-10.58-14.2,12.7-10.56,19.14-22.09,19.14-34.32,0-12.69-4-22.88-11.84-30.28C224.61,38.64,215.08,35,204,35a85.64,85.64,0,0,0-19.27,2.19A50.18,50.18,0,0,0,170.79,15c-10.58-10-22.88-15-36.55-15Z"/><path d="M369.43,272.77l2.32-8.61a47.65,47.65,0,0,0,1.61-12.48c0-4.86-.12-9-.36-12.36l-.7-9.84L377,230a440.58,440.58,0,0,1-3.42-52,384.23,384.23,0,0,1,3.66-50.9l1.17-8.68,44.86,8.6-2.2,8.55c-6.14,23.79-10.31,56.11-12.41,96.05l-.1,1.9,1.92,3.5c2.11,3.86,3.1,9.33,3.1,17.22a49.56,49.56,0,0,1-3.7,19.73l-2.64,6.11Z"/><path class="cls-1" d="M378.81,119l43.81,8.4-2.07,8c-6.14,23.82-10.32,56.18-12.42,96.16l-.11,2.08h0l2,3.57c2.07,3.78,3,9.18,3,17a49.05,49.05,0,0,1-3.66,19.53l-2.48,5.74-36.85-7.12,2.18-8.09a48.58,48.58,0,0,0,1.62-12.61c0-4.88-.12-9.05-.36-12.39l-.66-9.26,4.7.49,0-.3A441.45,441.45,0,0,1,374.05,178a383.1,383.1,0,0,1,3.66-50.83l1.1-8.16m-.85-1.18-.14,1-1.1,8.16a383.64,383.64,0,0,0-3.67,51,438.34,438.34,0,0,0,3.35,51.41l-3.46-.36-1.18-.12.08,1.19.66,9.25c.24,3.32.36,7.47.36,12.32A47.5,47.5,0,0,1,371.27,264l-2.18,8.09-.28,1,1.06.2,36.85,7.12.79.16.31-.74,2.49-5.74a50.17,50.17,0,0,0,3.74-19.93c0-8-1-13.53-3.16-17.46L409,233.4l.1-1.76c2.1-39.91,6.27-72.2,12.39-96l2.07-8,.27-1-1.05-.2L379,118l-1-.2Z"/><path class="cls-2" d="M101.3,144.76q-.73-20.85-.74-50.1t1.85-78.15a91.3,91.3,0,0,1,31.83-5.72q16.33,0,29.15,12.08t12.83,30.45q0,18.36-13.93,31.74t-36.45,19.65q0,20.67.56,42.44Zm42.9-72.71a26.69,26.69,0,0,0,6.74-17.71q0-9.78-5.08-15.87t-11.34-6.09a67.55,67.55,0,0,0-7.57.92q-.93,26-1.11,50.38Q137.47,80,144.2,72.05Z"/><path class="cls-2" d="M169.77,148.93q1.83-34.05,1.84-60.73t-.14-35.05A75.11,75.11,0,0,1,204,45.77q12.48,0,20.93,7.95t8.44,22.42q0,16.74-23.69,32.21Q222.54,124.52,236,144L222.41,154q-8.94-13.48-32.07-44-.42,21.86-1.28,41Zm38.87-60.8Q216,80.83,216,74.86t-3.47-9.22a12.83,12.83,0,0,0-9.16-3.27,37.64,37.64,0,0,0-12.48,2.42q0,24-.14,35.61A64.14,64.14,0,0,0,208.64,88.13Z"/><path class="cls-2" d="M296.59,155.85l-9.44-33-21.14.85-5.39,26.68-19.87-1.71,25.4-102.87L292.4,48l24.77,109.51ZM277.93,64.36,269,108.49l15.89-.57Z"/><path class="cls-3" d="M53.57,269.32q-18,0-30.41-16.15T10.79,204.06q0-33,13.5-53.74t31.83-20.77q18.32,0,30.5,16.24T98.8,194.71q0,32.68-13.59,53.64T53.57,269.32ZM42,166.66q-6,14.64-6,36.83t5.19,32.87Q46.29,247,54,247T67.73,232.3q6-14.73,6-36.93t-5-32.77Q63.67,152,56.31,152,48,152,42,166.66Z"/><path class="cls-3" d="M164.27,169.76l.14,66q0,16.32-1.13,35l-15.89-1.56q-18.31-41.57-29.94-62.29.14,21,.14,67L101,272.06q-.43-8.79-.43-17,0-34.34,3.83-80l18.88,1.84q14,38.75,25.25,58.89-.86-42.86-2-67.54Z"/><path class="cls-3" d="M182.54,271.14q-1.42-25.11-1.42-43.77t.85-39l-17.31,2.41-3.12-16.46q13.91-2.42,27.53-3.55l26.53-1.42,2.7,15.75q-7.81.43-17.6,1.28-.85,20.43-.85,37.46t.57,48.81Z"/><path class="cls-3" d="M215.85,271.92q-.57-22.42-.57-42.43t2.27-52.07a315.06,315.06,0,0,1,47.4-3.69v17.45q-16,0-29.8,1-.57,15.88-.71,24.4A209.51,209.51,0,0,1,260,214.74l2.69,15.61q-9.5.14-28.52,2.12,0,17,.15,24.55a281.87,281.87,0,0,0,29.51-4.26l2.41,15.61q-12.06,5.53-28.52,5.54Z"/><path class="cls-3" d="M274.24,269.44q-1.12-36.9-1.13-55.62a355.92,355.92,0,0,1,2.41-40l26.68,2.13q5,17.88,10.5,50.09,7.94-26,14-56.19l26.82,2.41q1.14,43.84,1.14,64.06t-1.28,36L334,270.43q1.84-17.88,3.12-75.77l-1.13-.14q-1.43,5.53-4.54,19-6.53,28-12.63,47.68l-12.91-1.14q-3.4-13.62-7.88-35.26T291.13,193l-1.14-.14q1.29,47.38,3,78.32Z"/><path class="cls-3" d="M403.19,241q2.07,3.78,2.07,13.23a41.27,41.27,0,0,1-3,16.44l-22.48-4.35a56.27,56.27,0,0,0,1.88-14.64q0-7.65-.37-13Zm-17.95-11.71a430.45,430.45,0,0,1-3.41-51.3,374.69,374.69,0,0,1,3.59-49.79L413,133.49q-9.45,36.66-12.66,97.69Z"/><path class="cls-4" d="M104.13,19.38s-.77,113.24-1,121.19l3.23-.8,1.39-121.24Z"/><path class="cls-4" d="M104.13,19.38S136.64,5,158.57,22.07c0,0-19.71-14.06-50.78-1.66Z"/><path class="cls-4" d="M179.81,51.53S217,35.84,229.56,66.73C229.56,66.73,219.2,43.36,179.81,51.53Z"/><polygon class="cls-4" points="243.4 144.15 267.66 49.11 291.38 50.38 269.85 51.53 243.4 144.15"/><path class="cls-5" d="M77,142.74s-49.53-30-59.65,55.38C17.39,198.12,24.85,105.65,77,142.74Z"/><path class="cls-5" d="M106.61,179.37s-4.36,66.73-3.44,75.9l6-73.84,13.53.23-14.88-2.29"/><path class="cls-5" d="M166.1,174.66s44.44-4.51,48.15-3.22v1.49Z"/><path class="cls-5" d="M220.93,179.37s-3.6,30-2.63,47.52c0,0,1.3-37.85,5.07-44.32,0,0,18.26-6.91,38.13-6.44C261.5,176.13,235.89,176,220.93,179.37Z"/><path class="cls-5" d="M278.05,177.19s-4.53,44.63-1.88,75.54c0,0,2.19-70.39,4.37-73.2,0,0,16.83.47,20.67,1.4C301.21,180.93,281.33,176.87,278.05,177.19Z"/><path class="cls-5" d="M315.75,222.52c1-.23,14.52-48.79,14.52-48.79l20.32,2.38-17.42,1.06Z"/><path class="cls-5" d="M410.72,135.91l-22.65-3.84s-7.7,66.45,0,89c0,0-2.42-74.69,3.08-84.15Z"/><path class="cls-5" d="M383.2,263.73s3.21-11.07,1.44-19.58l17.65,1.29-14,1.28S386.64,261.14,383.2,263.73Z"/></g></g></svg>