<svg xmlns="http://www.w3.org/2000/svg" viewBox="0 0 200 100"><defs><style>.cls-1{fill:#eaeaea;}.cls-2{fill:#bfbfbf;}.cls-3{fill:#f2f3f4;}.cls-4{fill:#d6d7d8;}.cls-5{fill:#c9c9c9;}</style></defs><g id="Camada_2" data-name="Camada 2"><g id="Camada_12" data-name="Camada 12"><path class="cls-1" d="M90,76.66c1.93-.41,41.83-13.17,41.83-13.17l53.66,20.27L144.23,100Z"/><path class="cls-2" d="M116.19,73.25S150.6,95.7,152.33,95.42s20.58-8.48,20.58-8.48Z"/><path class="cls-1" d="M101.3,70.43c1.92-.4,41.83-13.16,41.83-13.16S173.81,62,183,66.49c4,1.93,13.77,11,13.77,11l-41.2,16.25a20.9,20.9,0,0,0-11.81-13.09C132.91,75.79,101.3,70.43,101.3,70.43Z"/><polygon class="cls-3" points="82.95 13.12 117 32.26 185.07 17.23 146.57 0 82.95 13.12"/><polygon class="cls-4" points="117 32.26 117 57.72 185.07 38.44 185.07 17.23 117 32.26"/><polygon class="cls-5" points="117 32.26 117 57.72 82.95 36.63 82.95 13.12 117 32.26"/><path class="cls-1" d="M178.58,23.39,159.23,28s17-1.65,19.35,0Z"/><path class="cls-1" d="M89.91,24.25l23.4,13.22S92.77,30.6,88.23,30.86Z"/><polygon class="cls-1" points="103.21 39.83 114.32 47.52 108.76 47.52 103.21 39.83"/><path class="cls-1" d="M123.79,52c.5-.34,27.25-6.85,27.25-6.85s-13.83,9.19-14.5,13.69Z"/><polygon class="cls-1" points="118.66 42.33 157.21 32.26 123.79 46.37 118.66 42.33"/><polygon class="cls-2" points="47.21 74.04 68.01 86.19 96.38 68.49 85.94 62.82 47.21 74.04"/><rect class="cls-4" x="94.56" y="40.59" width="78.91" height="27.31"/><polygon class="cls-3" points="94.56 40.59 103.73 32.98 167.28 32.98 173.47 40.59 94.56 40.59"/><path class="cls-3" d="M98.57,47.53h38.58s-34.92,3.77-36.94,5.15Z"/><path class="cls-3" d="M119.1,57.55c-.47,0,50.18-.8,50.18-.8s0,4.34-.58,6C168.7,62.7,142.06,58.35,119.1,57.55Z"/><polygon class="cls-3" points="98.99 62.7 123.29 62.7 100.34 64.95 98.99 62.7"/><polygon class="cls-1" points="50.98 70.5 17.5 89.25 83.94 92 113.83 75.78 50.98 70.5"/><polygon class="cls-2" points="90.76 82.18 66.42 71.21 77.94 68.23 111.3 71.03 90.76 82.18"/><path class="cls-2" d="M97.72,76.45s12.67,6.86,13,9.31,11.36-8.87,11.36-8.87l-20.53-5.73Z"/><polygon class="cls-2" points="40.3 76.48 53.73 79.9 80.47 72.98 50.52 70.5 40.3 76.48"/><polygon class="cls-1" points="41.35 55.34 0 64.83 52.13 77.99 104.53 66.8 41.35 55.34"/><path class="cls-2" d="M70.79,74s-20.09-9.43-36-7.8L55,57.82l49.55,9Z"/><rect class="cls-4" x="18.19" y="38.53" width="78.91" height="27.31"/><polygon class="cls-3" points="18.19 38.53 27.37 30.92 90.92 30.92 97.1 38.53 18.19 38.53"/><path class="cls-3" d="M22.21,45.47H60.79s-34.92,3.77-36.94,5.15Z"/><path class="cls-3" d="M42.74,55.49c-.48,0,50.17-.8,50.17-.8s0,4.35-.57,6C92.34,60.64,65.7,56.29,42.74,55.49Z"/><polygon class="cls-3" points="22.63 60.64 46.93 60.64 23.98 62.89 22.63 60.64"/><rect class="cls-4" x="11.2" y="16.62" width="78.91" height="27.31"/><polygon class="cls-3" points="11.2 16.62 20.37 9.02 83.93 9.02 90.11 16.62 11.2 16.62"/><path class="cls-3" d="M15.22,23.56H53.8s-34.92,3.77-36.94,5.15Z"/><path class="cls-3" d="M35.74,33.58c-.47,0,50.18-.8,50.18-.8s0,4.35-.57,5.95C85.35,38.73,58.71,34.38,35.74,33.58Z"/><polygon class="cls-3" points="15.64 38.73 39.94 38.73 16.99 40.98 15.64 38.73"/><path class="cls-1" d="M45.74,65.14s42.58-1.71,65.5,18.65c0,0,15.59-13.78,32.13-17.75,0,0-58.85-20.15-65.54-17.13Z"/><polygon class="cls-4" points="84.26 49.74 57.4 65.28 60.57 65.71 87.01 50.41 84.26 49.74"/><path class="cls-1" d="M16.58,22.25S52.49,37.46,62.37,68.14L102.43,45S69.56,6.65,53.89,7.24Z"/><path class="cls-2" d="M137.77,77c1.66-.08,12.21-3.53,17.46,0s23.52-5.88,23.52-5.88L164.2,65.68H139.07l-10.9,6.66Z"/><path class="cls-2" d="M109.79,64.42S134,83.39,138,79a33.27,33.27,0,0,1,7.4-6.4Z"/><path class="cls-1" d="M108.76,63.62s23.82,19,31.32,11.53,27.24,1.74,27.24,1.74L200,63.62s-18.38-10.84-30-6.1-23.83-4.74-23.83-4.74Z"/></g></g></svg>