<svg xmlns="http://www.w3.org/2000/svg" viewBox="0 0 306.97 230.66"><defs><style>.cls-1{opacity:0.8;}.cls-2{fill:#414e87;}.cls-3{fill:#072049;}.cls-4{fill:#000316;}.cls-5{fill:#ffb000;}.cls-6{fill:#ff8d00;}.cls-7{fill:#5470c9;}.cls-8{fill:#214fb0;}.cls-9{fill:#91c0d9;}.cls-10{fill:#4d8fa4;}.cls-11{fill:#b0b0b0;}.cls-12{fill:#e8e8e8;}.cls-13{fill:#8b0322;}.cls-14{fill:#e91436;}.cls-15{fill:#ac0526;}.cls-16{fill:#e56e00;}.cls-17{fill:#ff7580;}.cls-18{fill:#dd4b5c;}.cls-19{fill:#bf2e44;}.cls-20{fill:#f65d70;}</style></defs><g id="Camada_2" data-name="Camada 2"><g id="Camada_11" data-name="Camada 11"><g class="cls-1"><polygon class="cls-2" points="233 8.28 116.5 17.86 233 19.57 233 8.28"/><polygon class="cls-2" points="235.39 41.98 52.14 47.38 236.88 54.44 235.39 41.98"/><path class="cls-2" d="M230.64,65.79C226,65.79,34,74.43,34,74.43l203.65,9Z"/><polygon class="cls-2" points="224.9 116.4 0 120.1 237.69 123.52 224.9 116.4"/><polygon class="cls-2" points="230.64 94.18 42.51 97.27 234.15 104.06 230.64 94.18"/><polygon class="cls-2" points="240.03 137.35 65.19 142.31 248.64 149.65 240.03 137.35"/><polygon class="cls-2" points="239.73 171.09 105.71 173.54 248.14 182.8 239.73 171.09"/><polygon class="cls-2" points="237.03 204.05 129.2 199.48 245.06 209.43 237.03 204.05"/></g><circle class="cls-3" cx="204.42" cy="215.76" r="6.79"/><circle class="cls-3" cx="213.43" cy="211.75" r="6.79"/><circle class="cls-3" cx="201.14" cy="223.86" r="4.35"/><polygon class="cls-3" points="216.05 217.96 210.79 205.5 201.78 209.5 207.05 222.01 216.05 217.96"/><polygon class="cls-3" points="230.87 198.18 220.04 190 207.92 207.78 218.75 215.95 230.87 198.18"/><polygon class="cls-3" points="205.16 225.52 209.93 215.79 197.68 214.46 196.77 223.73 205.16 225.52"/><circle class="cls-4" cx="258.17" cy="213.81" r="6.79"/><polygon class="cls-4" points="264.94 214.21 251.47 213.4 251.31 224.69 264.27 225.44 264.94 214.21"/><polygon class="cls-4" points="252.97 197.8 243.72 209.53 253.22 218.54 263.09 209.15 252.97 197.8"/><circle class="cls-4" cx="257.91" cy="223.85" r="6.79"/><circle class="cls-4" cx="266.3" cy="226.31" r="4.35"/><polygon class="cls-4" points="267.55 222.15 257.4 218.37 257.29 230.61 266.45 230.65 267.55 222.15"/><circle class="cls-5" cx="265.55" cy="183.92" r="7.05"/><path class="cls-6" d="M271.53,180.17a5.29,5.29,0,0,1,.29.52,3.79,3.79,0,0,1-.14.53A12.31,12.31,0,0,1,262,190a7,7,0,0,1-2.41-2.33,7.05,7.05,0,0,1,2.19-9.72,6.56,6.56,0,0,1,1.18-.6s.08,0,.11,0c.61-.15,1.2-.29,1.81-.4a.4.4,0,0,1,.21,0A7,7,0,0,1,271.53,180.17Z"/><path class="cls-6" d="M271.82,180.69a3.79,3.79,0,0,1-.14.53A12.31,12.31,0,0,1,262,190a7,7,0,0,1-2.41-2.33,7.05,7.05,0,0,1,2.19-9.72,6.56,6.56,0,0,1,1.18-.6s.08,0,.11,0c.61-.15,1.2-.29,1.81-.4a.4.4,0,0,1,.21,0C269.36,176,272.89,176.48,271.82,180.69Z"/><path class="cls-7" d="M251.59,150.18a6.14,6.14,0,1,0-10.39,6.54l16.38,30.16a2.86,2.86,0,0,0,2.78,1.49,15.12,15.12,0,0,0,11.3-7.16,2.91,2.91,0,0,0-.05-3.28Z"/><path class="cls-8" d="M244.51,147.62l.23.36s-2.72,4.21,1.57,9.42,20.26,28.85,20.26,28.85l-.2.17a14.51,14.51,0,0,1-6,1.94,2.87,2.87,0,0,1-2.79-1.48l-16.39-30.15a6.15,6.15,0,0,1,1.94-8.47A5.24,5.24,0,0,1,244.51,147.62Z"/><path class="cls-3" d="M247.86,200.14H248a51,51,0,0,0,10.79-2.68,41.44,41.44,0,0,0,.2-5.5,20.09,20.09,0,0,1,.21,2.81c0,12.08-10.39,21.87-23.22,21.87-12.21,0-22.2-8.88-23.13-20.16C221.71,199.12,234.78,201.94,247.86,200.14Z"/><g id="mão_1" data-name="mão 1"><ellipse class="cls-9" cx="214.26" cy="195.65" rx="5.32" ry="7.54" transform="translate(-71.26 144.05) rotate(-32.16)"/><path class="cls-10" d="M210.49,199.5a9.88,9.88,0,0,1-.74-1c-2.21-3.52-2-7.65.5-9.21s6.3,0,8.52,3.55a10.66,10.66,0,0,1,.71,1.33A14,14,0,0,1,210.49,199.5Z"/></g><path class="cls-7" d="M205.71,194.15c9.28,3.26,32.89,11,53.28,3.4,4.31-20.14-11.63-47-13.65-58.06-.34-1.8-19-11.84-23.25-1.1C216.12,153.37,205.1,178.8,205.71,194.15Z"/><path class="cls-8" d="M205.71,194.15c5.32,2,24,7.55,42.26,6l-3.23-12.51-7-20.19,3.59-10.82,7.29-5.32h0a95.6,95.6,0,0,1-3.3-11.81c-.34-1.8-19-11.84-23.25-1.1C216.09,153.42,205,178.78,205.71,194.15Z"/><g id="papel"><path class="cls-11" d="M246.15,197.44c.62.58-20.13,23.39-20.13,23.39l-34.76-32.29,18.89-23.85S242.57,194,246.15,197.44Z"/><path class="cls-12" d="M244.73,194c.68.51-17.09,25.71-17.09,25.71L189.15,192l15.79-26S240.75,191.06,244.73,194Z"/></g><ellipse class="cls-5" cx="213.82" cy="195.74" rx="5.32" ry="7.54" transform="translate(-72.23 148.74) rotate(-33.14)"/><path class="cls-6" d="M210.11,199.48c-.26-.32-.51-.65-.75-1-2.27-3.48-2.12-7.61.34-9.22s6.3-.09,8.58,3.4A10.14,10.14,0,0,1,219,194,14,14,0,0,1,210.11,199.48Z"/><path class="cls-7" d="M228.11,147.45l-14.24,21.79c-3,4.2-2,6.39-1.67,6.94,0,0,7.18,11.52,7.51,15.29.11,1.29-9.81,7.75-11.91,7.09-1.34-.42-11.53-21.64-11.53-21.64a6,6,0,0,1,.23-6s12.92-25.51,19.8-31.18C219,137.51,228.11,147.45,228.11,147.45Z"/><path class="cls-8" d="M196.5,170.93s12.92-25.51,19.8-31.18c2.72-2.24,11.81,7.7,11.81,7.7l-1.81,2.77c-2.54-2.49-7.06-6.46-8.77-5.05-6.17,5.08-17.75,28-17.75,28a5.35,5.35,0,0,0-.21,5.37s9.13,19,10.34,19.39a1.61,1.61,0,0,0,.75,0,5.23,5.23,0,0,1-2.86.7c-1.34-.42-11.53-21.64-11.53-21.64A6,6,0,0,1,196.5,170.93Z"/><g id="gravatenha"><polygon class="cls-13" points="250.49 144.15 241.76 158.14 233.61 150.56 250.49 144.15"/><polygon class="cls-13" points="223.92 146.83 240.31 148.6 237.03 159.24 223.92 146.83"/><g id="gravatenha-2" data-name="gravatenha"><path class="cls-14" d="M241.2,159.86s5.72,14.33,6.75,23.74a2.42,2.42,0,0,1-.33,1.66L244,189.94a1.89,1.89,0,0,1-2.72.25L235.36,185a1.72,1.72,0,0,1-.62-1.63c1.58-6.89,2.79-23.24,2.79-23.24a1.88,1.88,0,0,1,2.05-1.64h0A1.89,1.89,0,0,1,241.2,159.86Z"/><path class="cls-15" d="M234.74,183.38c1.58-6.89,2.79-23.24,2.79-23.24a1.88,1.88,0,0,1,2.05-1.64,1.89,1.89,0,0,1,1.62,1.36s.21.52.55,1.43h-.05a1.62,1.62,0,0,0-1.77,1.42s-1.05,14.12-2.41,20.08a1.49,1.49,0,0,0,.53,1.41l5.1,4.47a1.59,1.59,0,0,0,1.6.28l-.78,1a1.89,1.89,0,0,1-2.72.25L235.36,185A1.72,1.72,0,0,1,234.74,183.38Z"/><path class="cls-14" d="M243.34,150.82l-1.28,6.71a2.88,2.88,0,0,1-2.35,2.3l-.93.15a2.87,2.87,0,0,1-3-1.5l-3.32-6.33a2.88,2.88,0,0,1,2.27-4.19l5.52-.55A2.88,2.88,0,0,1,243.34,150.82Z"/><path class="cls-15" d="M235.86,151.29c.32,7.39,5,8.84,2.69,9.1-2.62.29-5-5.94-4.94-6.06S235.82,150.33,235.86,151.29Z"/><path class="cls-15" d="M234.71,148l5.52-.55a2.88,2.88,0,0,1,3.11,3.41l-.85,4.47c-1.08-3.39-3-5.67-4.85-5.37s-2.95,3.11-2.87,6.68l-2.33-4.45A2.88,2.88,0,0,1,234.71,148Z"/></g></g><path class="cls-7" d="M248.33,131.26s5.56,7.87,3.9,13.88c-.78,2.81-6.72,5.79-6.72,5.79-.89.54-4.13.73-4.85-1.28L236,136.53l.94-4.88Z"/><path class="cls-7" d="M245.92,134c-4.43.77-7.1,6.75-6.07,13.45L236,136.53l.94-4.88,11.44-.39a28.4,28.4,0,0,1,2.16,3.78A6.38,6.38,0,0,0,245.92,134Z"/><path class="cls-7" d="M236.75,133.27c.59,7.92-.86,14.27-2.51,17.69a2.53,2.53,0,0,1-3.76,1L216.35,141.6c-1-.72-1.13-1.93-1.16-3.15-.08-2.65,1.62-7.1,1.62-7.1Z"/><path class="cls-8" d="M218.15,135a13.73,13.73,0,0,0-2.14,6.27,4.25,4.25,0,0,1-.82-2.84c-.08-2.65,1.62-7.1,1.62-7.1l19.77,1.91.31-1.61,11.44-.39.13.19.07.1c0,.06.08.14.14.22l.08.13c.06.1.13.2.19.31l.11.17.23.4a1.18,1.18,0,0,1,.11.19l0,0C230.53,140.35,219.72,132.22,218.15,135Z"/><g id="cabeca"><circle class="cls-5" cx="231.77" cy="75.78" r="57.92"/><path class="cls-6" d="M186.34,39.87a57.91,57.91,0,0,0,96,64.08,57.92,57.92,0,1,1-96-64.08Z"/><path class="cls-16" d="M228.47,87.63a.6.6,0,0,1,.59-.6.63.63,0,0,1,.42.17h0a7.72,7.72,0,0,0,7.71,2,8,8,0,0,0,4.72-4.45h0a.59.59,0,0,1,1.15.19.51.51,0,0,1-.06.25h0a9.17,9.17,0,0,1-5.46,5.14,8.41,8.41,0,0,1-2.57.4,9.06,9.06,0,0,1-6.32-2.63A.61.61,0,0,1,228.47,87.63Z"/><path class="cls-16" d="M262,84.9a.6.6,0,0,1,.82.17s0,.06,0,.09h0a7.68,7.68,0,0,0,6.48,4.61,8,8,0,0,0,6-2.44h0s.06-.07.1-.09a.59.59,0,0,1,.82.17.58.58,0,0,1-.07.72h0A9.26,9.26,0,0,1,269.82,91l-.52,0a8.89,8.89,0,0,1-7.49-5.31h0A.6.6,0,0,1,262,84.9Z"/><path d="M266.61,65.86a3.57,3.57,0,0,1,7.13,0v0h0V80.74a3.57,3.57,0,1,1-7.13,0V65.91h0Z"/><path d="M231.33,65.86a3.57,3.57,0,0,1,7.14,0,.43.43,0,0,1,0,0h0V80.74a3.57,3.57,0,1,1-7.14,0V65.91h0A.43.43,0,0,1,231.33,65.86Z"/></g><g id="bone"><path class="cls-17" d="M202.26,9.56c-.09-.75-1.4-1.22-2.28-1.27a3.42,3.42,0,0,0-3.3,2.4c-.13.42-.43,1.32,0,1.73C197.69,13.42,202.44,11.07,202.26,9.56Z"/><path class="cls-18" d="M225.61,28.5c-38.71,7.21-51.76,44.05-51.76,44.05s-6.13-22.41,6-42.1a63.69,63.69,0,0,1,19.84-19.84C223-4.24,256.22,4.75,258,11.55,259.12,15.79,244.19,25,225.61,28.5Z"/><path class="cls-17" d="M284.46,51.69s15.56-8.51,19.7-17.91c1.46-3.32,4.2-8.22,2-15.15C303.68,11,295.3,6.06,291.62,4.16c-15-7.78-29.27-2.8-36.45.1-12,4.84-33.2,25.1-33.2,25.1,4.5.18,28-1.38,40.51,4.77C278.5,40.28,284.46,51.69,284.46,51.69Z"/><path class="cls-17" d="M192.9,30.45A38.84,38.84,0,0,0,196.31,42l1-.76a37,37,0,0,1-3.2-10.94,38.2,38.2,0,0,1,1.65-17c-.57.42-1.12.85-1.64,1.27A39.51,39.51,0,0,0,192.9,30.45Z"/><path class="cls-17" d="M205.19,7.58a29,29,0,0,1,14,2.89,25.3,25.3,0,0,1,11.4,11c.3-.27.61-.53.92-.79h0A26.53,26.53,0,0,0,219.73,9.4a29.68,29.68,0,0,0-11.76-3C207,6.76,206.1,7.15,205.19,7.58Z"/><path class="cls-19" d="M176.22,37.58c-.12,1.64-.2,3.28-.2,4.94a65.25,65.25,0,0,0,3,19.63,65.36,65.36,0,0,0-5.17,10.4S169.1,55.17,176.22,37.58Z"/><path class="cls-19" d="M240.11,3.48A51,51,0,0,1,250.93,6.3c-7.46,4.24-13.34,9.23-19.16,14.27Z"/><path class="cls-20" d="M282,48c-9.27-11-28.12-18.69-49.17-18.69-1,0-3.16,0-4.13,0,5.3-11.51,41.5-31.78,63.17-21,15.06,7.48,13.76,29.28-7.6,39Z"/></g></g></g></svg>