<svg xmlns="http://www.w3.org/2000/svg" viewBox="0 0 120 120"><defs><style>.cls-1{fill:#665d28;}.cls-2{fill:#f2e820;}.cls-3{fill:#9e9349;}.cls-4{fill:none;stroke:#000;stroke-miterlimit:10;stroke-width:2.87px;}</style></defs><g id="Camada_2" data-name="Camada 2"><g id="Camada_7" data-name="Camada 7"><polygon class="cls-1" points="119.25 97.65 76.08 77.74 67.53 59.66 82.65 15.86 119.25 97.65"/><polygon class="cls-2" points="46.92 120 0 98.45 36.92 0 81.35 13.64 46.92 120"/><polygon class="cls-3" points="46.92 120 81.35 13.64 83.36 15.02 49.79 119.32 46.92 120"/><polygon class="cls-3" points="83.36 15.02 120 95.81 119.25 97.65 81.35 15.73 83.36 15.02"/><path d="M39.74,58.73h0a1,1,0,0,1-.6-1.2l4.19-15a.94.94,0,0,1,1.22-.66l2.59.94a1,1,0,0,1,.53,1.36l-6.78,14.1A.93.93,0,0,1,39.74,58.73Z"/><ellipse cx="38.62" cy="61.95" rx="1.95" ry="2.02"/><path class="cls-4" d="M21.66,61.64,51.8,75.93a1.39,1.39,0,0,0,1.94-1.44L49.86,34.77a1.36,1.36,0,0,0-2.31-.9L21.29,59.31A1.45,1.45,0,0,0,21.66,61.64Z"/></g></g></svg>