<svg xmlns="http://www.w3.org/2000/svg" viewBox="0 0 100 200"><defs><style>.cls-1{fill:#2c2c33;}.cls-2{fill:#3b3b44;}.cls-3{fill:#eae54e;}.cls-4{fill:#ba4d4d;}.cls-5{fill:#a03f3f;}.cls-6{fill:#c98585;}.cls-7{fill:#eac296;}.cls-8{fill:#267c24;}.cls-9{fill:#3f9e6a;}.cls-10{fill:#52cc83;}.cls-11{fill:#493015;}.cls-12{fill:#9b7e3e;}.cls-13{fill:#c6c06d;}.cls-14{fill:#bfbfbf;}.cls-15{fill:#d17d9c;}.cls-16{fill:#ea8be4;}.cls-17{fill:#b54da1;}</style></defs><g id="Camada_2" data-name="Camada 2"><g id="Camada_11" data-name="Camada 11"><rect class="cls-1" x="31.62" y="61.83" width="15.27" height="72.42" rx="5.59"/><rect class="cls-2" x="29.61" y="17.02" width="19.28" height="54.3" rx="5.44"/><rect class="cls-2" x="29.61" y="17.02" width="19.28" height="54.3" rx="5.44"/><rect class="cls-3" x="28.14" y="27.18" width="22.23" height="6.65" rx="2.04"/><rect class="cls-3" x="33.51" y="42.53" width="36.99" height="3.28" rx="1.64" transform="translate(96.17 -7.84) rotate(90)"/><polygon class="cls-4" points="36.56 152.69 21.92 155.05 0.73 19.37 15.37 17.02 36.56 152.69"/><polygon class="cls-5" points="26.68 154.28 21.92 155.05 0.73 19.37 5.49 18.61 26.68 154.28"/><polygon class="cls-6" points="36.56 152.69 31.8 153.46 10.61 17.79 15.37 17.02 36.56 152.69"/><polygon class="cls-7" points="0.73 19.37 5.21 0 15.37 17.02 0.73 19.37"/><polygon points="5.21 0 3.91 5.59 8.14 4.92 5.21 0"/><polygon class="cls-8" points="43.23 175.62 29.73 169.4 85.74 44.33 99.24 50.55 43.23 175.62"/><polygon class="cls-9" points="34.12 171.42 29.73 169.4 85.74 44.33 90.13 46.35 34.12 171.42"/><polygon class="cls-10" points="43.23 175.62 38.84 173.6 94.84 48.52 99.24 50.55 43.23 175.62"/><polygon class="cls-7" points="85.74 44.33 100 30.66 99.24 50.55 85.74 44.33"/><polygon points="100 30.66 95.88 34.61 99.78 36.4 100 30.66"/><polygon class="cls-11" points="51.12 172.5 36.58 169.47 63.13 35.03 77.68 38.06 51.12 172.5"/><polygon class="cls-12" points="41.31 170.46 36.58 169.47 63.13 35.03 67.86 36.01 41.31 170.46"/><polygon class="cls-13" points="51.12 172.5 46.39 171.51 72.94 37.07 77.68 38.06 51.12 172.5"/><rect class="cls-14" x="63.75" y="27.36" width="14.85" height="9.64" transform="translate(6.74 -11.98) rotate(10.09)"/><path class="cls-15" d="M66.45,24.58H77.87a1.71,1.71,0,0,1,1.71,1.71V28.8a0,0,0,0,1,0,0H64.73a0,0,0,0,1,0,0V26.29a1.71,1.71,0,0,1,1.71-1.71Z" transform="translate(5.79 -12.23) rotate(10.09)"/><path class="cls-16" d="M66,200H20.29a6.84,6.84,0,0,1-6.75-5.92L.07,100.23a6.89,6.89,0,0,1,6.75-7.92H79.45a6.89,6.89,0,0,1,6.75,7.92L72.74,194.08A6.85,6.85,0,0,1,66,200Z"/><path class="cls-17" d="M75.3,176.25l-2.57,17.83A6.84,6.84,0,0,1,66,200H20.29a6.86,6.86,0,0,1-6.76-5.92L.07,100.23a6.89,6.89,0,0,1,6.75-7.91H22.24S9.94,177.08,75.3,176.25Z"/><path class="cls-17" d="M75.3,176.25l-2.57,17.83A6.84,6.84,0,0,1,66,200H20.29a6.86,6.86,0,0,1-6.76-5.92L.07,100.23a6.89,6.89,0,0,1,6.75-7.91H22.24S9.94,177.08,75.3,176.25Z"/></g></g></svg>